<?xml version="1.0" encoding="UTF-8" standalone="no"?>
<svg
   xmlns:dc="http://purl.org/dc/elements/1.1/"
   xmlns:cc="http://creativecommons.org/ns#"
   xmlns:rdf="http://www.w3.org/1999/02/22-rdf-syntax-ns#"
   xmlns:svg="http://www.w3.org/2000/svg"
   xmlns="http://www.w3.org/2000/svg"
   xmlns:sodipodi="http://sodipodi.sourceforge.net/DTD/sodipodi-0.dtd"
   xmlns:inkscape="http://www.inkscape.org/namespaces/inkscape"
   width="256.633"
   height="55"
   viewBox="0 0 256.633 55"
   version="1.1"
   id="svg9"
   sodipodi:docname="deskapp-logo-old.svg"
   inkscape:version="0.92.5 (2060ec1f9f, 2020-04-08)">
  <metadata
     id="metadata15">
    <rdf:RDF>
      <cc:Work
         rdf:about="">
        <dc:format>image/svg+xml</dc:format>
        <dc:type
           rdf:resource="http://purl.org/dc/dcmitype/StillImage" />
      </cc:Work>
    </rdf:RDF>
  </metadata>
  <defs
     id="defs13" />
  <sodipodi:namedview
     pagecolor="#ffffff"
     bordercolor="#666666"
     borderopacity="1"
     objecttolerance="10"
     gridtolerance="10"
     guidetolerance="10"
     inkscape:pageopacity="0"
     inkscape:pageshadow="2"
     inkscape:window-width="1920"
     inkscape:window-height="1000"
     id="namedview11"
     showgrid="false"
     showguides="false"
     inkscape:zoom="1.2391236"
     inkscape:cx="128.3165"
     inkscape:cy="27.5"
     inkscape:window-x="0"
     inkscape:window-y="0"
     inkscape:window-maximized="1"
     inkscape:current-layer="deskapp-logo" />
  <g
     id="deskapp-logo"
     transform="translate(-329.089 -601.197)">
    <g
       id="_029-blend"
       data-name="029-blend"
       transform="translate(329.089 601.197)">
      <path
         id="Path_78"
         data-name="Path 78"
         d="M25.58,27.609H1.705A1.716,1.716,0,0,1,0,25.883V1.725A1.716,1.716,0,0,1,1.705,0H25.58a1.716,1.716,0,0,1,1.705,1.725V25.883A1.716,1.716,0,0,1,25.58,27.609Zm0,0"
         transform="translate(0)"
         fill="#0051bd" />
      <path
         id="Path_79"
         data-name="Path 79"
         d="M153.947,155.781H137.834A4.84,4.84,0,0,1,133,150.947V134.834A4.84,4.84,0,0,1,137.834,130h16.113a4.84,4.84,0,0,1,4.834,4.834v16.113A4.84,4.84,0,0,1,153.947,155.781Zm0,0"
         transform="translate(-118.713 -116.035)"
         fill="#00eccf" />
      <path
         id="Path_80"
         data-name="Path 80"
         d="M261.949,130H254v25.781h7.949a4.84,4.84,0,0,0,4.834-4.834V134.834A4.84,4.84,0,0,0,261.949,130Zm0,0"
         transform="translate(-226.715 -116.035)"
         fill="#00cab1" />
      <path
         id="Path_81"
         data-name="Path 81"
         d="M284.891,297.781a12.891,12.891,0,1,1,12.891-12.891A12.905,12.905,0,0,1,284.891,297.781Zm0,0"
         transform="translate(-242.781 -242.781)"
         fill="#d11372" />
    </g>
    <text
       xml:space="preserve"
       style="font-style:normal;font-weight:normal;font-size:40px;line-height:1.25;font-family:sans-serif;letter-spacing:0px;word-spacing:0px;fill:#ffffff;fill-opacity:1;stroke:none;"
       x="392.03671"
       y="644.09167"
       id="text19"><tspan
         sodipodi:role="line"
         id="tspan17"
         x="392.03671"
         y="644.09167">Task Pro</tspan></text>
  </g>
</svg>
