<?xml version="1.0" encoding="UTF-8" standalone="no"?><!-- Generator: Gravit.io --><svg xmlns="http://www.w3.org/2000/svg" xmlns:xlink="http://www.w3.org/1999/xlink" style="isolation:isolate" viewBox="0 0 256.633 55" width="256.633pt" height="55pt"><defs><clipPath id="_clipPath_uJ6vqZbwjjpXmNrD6o8obvSyvopgPBsV"><rect width="256.633" height="55"/></clipPath></defs><g clip-path="url(#_clipPath_uJ6vqZbwjjpXmNrD6o8obvSyvopgPBsV)"><g><path d=" M 25.58 27.609 L 1.705 27.609 C 0.758 27.603 -0.006 26.83 0 25.883 L 0 1.725 C -0.005 0.778 0.758 0.006 1.705 0 L 25.58 0 C 26.527 0.006 27.29 0.778 27.285 1.725 L 27.285 25.883 C 27.291 26.83 26.527 27.603 25.58 27.609 L 25.58 27.609 Z " fill="rgb(0,81,189)"/><path d=" M 35.234 39.746 L 19.121 39.746 C 16.453 39.743 14.29 37.58 14.287 34.912 L 14.287 18.799 C 14.29 16.131 16.453 13.968 19.121 13.965 L 35.234 13.965 C 37.902 13.968 40.065 16.131 40.068 18.799 L 40.068 34.912 C 40.065 37.58 37.902 39.743 35.234 39.746 L 35.234 39.746 Z " fill="rgb(0,236,207)"/><path d=" M 35.234 13.965 L 27.285 13.965 L 27.285 39.746 L 35.234 39.746 C 37.902 39.743 40.065 37.58 40.068 34.912 L 40.068 18.799 C 40.065 16.131 37.902 13.968 35.234 13.965 L 35.234 13.965 Z " fill="rgb(0,202,177)"/><path d=" M 42.11 55 C 34.99 55 29.219 49.229 29.219 42.109 C 29.219 34.989 34.99 29.218 42.11 29.218 C 49.23 29.218 55.001 34.989 55.001 42.109 C 54.993 49.225 49.226 54.992 42.11 55 L 42.11 55 Z " fill="rgb(209,19,114)"/></g><path d=" M 75.506 9.008 L 87.055 9.008 C 89.969 8.93 92.861 9.534 95.5 10.773 C 97.785 11.885 99.671 13.675 100.9 15.899 C 102.202 18.369 102.846 21.133 102.77 23.924 C 102.849 26.726 102.212 29.503 100.921 31.991 C 99.701 34.22 97.823 36.017 95.543 37.138 C 92.893 38.392 89.985 39.003 87.055 38.92 L 75.506 38.92 L 75.506 9.008 Z  M 86.635 33.63 Q 96.215 33.63 96.215 23.924 Q 96.215 14.302 86.635 14.302 L 82.056 14.302 L 82.056 33.63 L 86.635 33.63 Z  M 126.592 28.798 L 112.559 28.798 C 112.521 30.39 113.075 31.94 114.114 33.147 C 115.25 34.133 116.732 34.625 118.232 34.513 C 119.346 34.509 120.451 34.324 121.506 33.966 C 122.595 33.602 123.617 33.062 124.531 32.366 L 126.212 36.652 C 125.091 37.522 123.815 38.171 122.452 38.564 C 120.99 39.021 119.467 39.254 117.935 39.257 Q 112.557 39.257 109.49 36.295 C 107.377 34.15 106.264 31.214 106.423 28.207 C 106.388 26.202 106.842 24.219 107.747 22.43 C 108.583 20.785 109.873 19.414 111.465 18.48 C 113.111 17.529 114.984 17.042 116.885 17.072 C 119.568 16.941 122.17 18.011 123.985 19.992 C 125.81 22.198 126.738 25.011 126.585 27.87 L 126.592 28.798 Z  M 117.054 21.529 C 115.98 21.481 114.931 21.858 114.134 22.579 C 113.326 23.413 112.816 24.492 112.684 25.646 L 121.129 25.646 Q 120.626 21.529 117.055 21.529 L 117.054 21.529 Z  M 138.735 39.26 Q 132.685 39.26 129.197 36.655 L 130.878 32.243 C 132.015 33.064 133.278 33.695 134.617 34.113 C 135.975 34.545 137.392 34.764 138.817 34.764 C 139.686 34.813 140.554 34.641 141.338 34.264 C 141.892 33.986 142.236 33.413 142.22 32.793 C 142.236 32.294 141.999 31.82 141.59 31.533 C 140.907 31.124 140.15 30.853 139.363 30.733 L 135.876 29.933 C 134.197 29.665 132.629 28.921 131.359 27.79 C 130.365 26.739 129.841 25.328 129.909 23.882 C 129.894 22.61 130.3 21.37 131.064 20.353 C 131.895 19.27 133.007 18.435 134.278 17.937 C 135.788 17.337 137.402 17.045 139.026 17.076 C 140.538 17.076 142.04 17.309 143.48 17.769 C 144.881 18.202 146.202 18.861 147.391 19.72 L 145.626 23.966 C 144.597 23.242 143.473 22.662 142.286 22.243 C 141.227 21.864 140.111 21.665 138.986 21.655 C 138.139 21.61 137.296 21.799 136.549 22.201 C 135.998 22.503 135.659 23.085 135.667 23.714 C 135.653 24.16 135.847 24.586 136.192 24.869 C 136.753 25.251 137.392 25.502 138.062 25.604 L 141.633 26.404 C 143.397 26.699 145.043 27.485 146.381 28.673 C 147.394 29.765 147.924 31.219 147.852 32.707 C 147.908 34.614 146.99 36.419 145.415 37.497 C 143.43 38.774 141.092 39.391 138.735 39.26 Z  M 166.424 38.92 L 158.063 29.382 L 158.063 38.92 L 151.718 38.92 L 151.718 8 L 158.062 8 L 158.062 26.781 L 166.045 17.663 L 173.645 17.663 L 164.612 27.873 L 174.192 38.923 L 166.424 38.92 Z  M 196.213 32.281 L 182.222 32.281 L 179.365 38.92 L 172.765 38.92 L 186.506 9.008 L 191.806 9.008 L 205.541 38.92 L 199.071 38.92 L 196.213 32.281 Z  M 194.07 27.281 L 189.238 16.063 L 184.406 27.285 L 194.07 27.281 Z  M 220.706 17.075 C 222.435 17.048 224.132 17.539 225.58 18.483 C 227.046 19.465 228.204 20.842 228.92 22.454 C 229.746 24.288 230.155 26.283 230.12 28.294 C 230.161 30.283 229.759 32.256 228.944 34.071 C 228.237 35.651 227.084 36.989 225.625 37.92 C 224.148 38.829 222.44 39.294 220.706 39.26 C 219.32 39.283 217.949 38.966 216.714 38.336 C 215.585 37.765 214.65 36.873 214.025 35.773 L 214.025 47.999 L 207.681 47.999 L 207.681 23.714 C 207.694 21.678 207.582 19.644 207.345 17.622 L 213.311 17.622 L 213.731 21.151 C 214.29 19.891 215.241 18.845 216.441 18.168 C 217.738 17.426 219.212 17.049 220.706 17.075 Z  M 218.906 34.428 C 220.293 34.508 221.635 33.923 222.519 32.852 C 223.444 31.519 223.888 29.912 223.779 28.293 C 223.876 26.64 223.426 25.001 222.498 23.629 C 221.651 22.511 220.307 21.882 218.906 21.948 C 217.505 21.872 216.153 22.474 215.272 23.566 C 214.334 24.925 213.883 26.561 213.991 28.209 C 213.88 29.85 214.332 31.481 215.272 32.831 C 216.16 33.911 217.51 34.504 218.906 34.428 Z  M 247.225 17.075 C 248.954 17.048 250.651 17.539 252.099 18.483 C 253.565 19.465 254.723 20.842 255.439 22.454 C 256.265 24.288 256.674 26.283 256.639 28.294 C 256.68 30.283 256.278 32.256 255.463 34.071 C 254.755 35.652 253.598 36.99 252.137 37.92 C 250.661 38.83 248.955 39.297 247.221 39.265 C 245.835 39.288 244.464 38.971 243.229 38.341 C 242.1 37.77 241.165 36.878 240.54 35.778 L 240.54 47.999 L 234.196 47.999 L 234.196 23.714 C 234.209 21.678 234.097 19.644 233.86 17.622 L 239.826 17.622 L 240.246 21.151 C 240.805 19.891 241.756 18.845 242.956 18.168 C 244.253 17.426 245.727 17.049 247.221 17.075 L 247.225 17.075 Z  M 245.414 34.428 C 246.801 34.508 248.143 33.923 249.027 32.852 C 249.952 31.519 250.396 29.912 250.287 28.293 C 250.384 26.64 249.934 25.001 249.006 23.63 C 248.159 22.512 246.815 21.883 245.414 21.949 C 244.013 21.873 242.661 22.475 241.78 23.567 C 240.842 24.926 240.391 26.562 240.499 28.21 C 240.388 29.851 240.84 31.482 241.78 32.832 C 242.668 33.912 244.018 34.505 245.414 34.428 Z " fill="none"/><g clip-path="url(#_clipPath_d6kZCWuulzUYO762ZFUQtfCJ83yBQeIR)"><text transform="matrix(1,0,0,1,56.873,41.75)" style="font-family:'Poller One';font-weight:400;font-size:36px;font-style:normal;fill:#181f48;stroke:none;">Task Pro</text></g><defs><clipPath id="_clipPath_d6kZCWuulzUYO762ZFUQtfCJ83yBQeIR"><rect x="0" y="0" width="234.639" height="55" transform="matrix(1,0,0,1,56.873,8)"/></clipPath></defs></g></svg>