<?xml version="1.0" encoding="UTF-8" standalone="no"?>
<svg
   xmlns:osb="http://www.openswatchbook.org/uri/2009/osb"
   xmlns:dc="http://purl.org/dc/elements/1.1/"
   xmlns:cc="http://creativecommons.org/ns#"
   xmlns:rdf="http://www.w3.org/1999/02/22-rdf-syntax-ns#"
   xmlns:svg="http://www.w3.org/2000/svg"
   xmlns="http://www.w3.org/2000/svg"
   xmlns:xlink="http://www.w3.org/1999/xlink"
   xmlns:sodipodi="http://sodipodi.sourceforge.net/DTD/sodipodi-0.dtd"
   xmlns:inkscape="http://www.inkscape.org/namespaces/inkscape"
   width="256.633"
   height="55"
   viewBox="0 0 256.633 55"
   version="1.1"
   id="svg9"
   sodipodi:docname="deskapp-logo-white.svg"
   inkscape:version="0.92.5 (2060ec1f9f, 2020-04-08)">
  <metadata
     id="metadata15">
    <rdf:RDF>
      <cc:Work
         rdf:about="">
        <dc:format>image/svg+xml</dc:format>
        <dc:type
           rdf:resource="http://purl.org/dc/dcmitype/StillImage" />
      </cc:Work>
    </rdf:RDF>
  </metadata>
  <defs
     id="defs13">
    <linearGradient
       id="linearGradient4546"
       osb:paint="gradient">
      <stop
         style="stop-color:#000000;stop-opacity:1;"
         offset="0"
         id="stop4542" />
      <stop
         style="stop-color:#ffffff;stop-opacity:0;"
         offset="1"
         id="stop4544" />
    </linearGradient>
    <linearGradient
       inkscape:collect="always"
       xlink:href="#linearGradient4546"
       id="linearGradient827"
       gradientUnits="userSpaceOnUse"
       gradientTransform="translate(-2.4210649,2.4210659)"
       x1="67.672661"
       y1="25.561493"
       x2="228.10235"
       y2="25.561493" />
  </defs>
  <sodipodi:namedview
     pagecolor="#ffffff"
     bordercolor="#666666"
     borderopacity="1"
     objecttolerance="10"
     gridtolerance="10"
     guidetolerance="10"
     inkscape:pageopacity="0"
     inkscape:pageshadow="2"
     inkscape:window-width="1920"
     inkscape:window-height="1000"
     id="namedview11"
     showgrid="false"
     showguides="false"
     inkscape:zoom="1.2391236"
     inkscape:cx="-276.80855"
     inkscape:cy="27.5"
     inkscape:window-x="0"
     inkscape:window-y="0"
     inkscape:window-maximized="1"
     inkscape:current-layer="svg9"
     inkscape:snap-text-baseline="false" />
  <g
     id="deskapp-logo"
     transform="translate(-329.089,-601.197)">
    <g
       id="_029-blend"
       data-name="029-blend"
       transform="translate(329.089,601.197)">
      <path
         id="Path_78"
         data-name="Path 78"
         d="M 25.58,27.609 H 1.705 A 1.716,1.716 0 0 1 0,25.883 V 1.725 A 1.716,1.716 0 0 1 1.705,0 H 25.58 a 1.716,1.716 0 0 1 1.705,1.725 v 24.158 a 1.716,1.716 0 0 1 -1.705,1.726 z m 0,0"
         inkscape:connector-curvature="0"
         style="fill:#0051bd" />
      <path
         id="Path_79"
         data-name="Path 79"
         d="M 153.947,155.781 H 137.834 A 4.84,4.84 0 0 1 133,150.947 V 134.834 A 4.84,4.84 0 0 1 137.834,130 h 16.113 a 4.84,4.84 0 0 1 4.834,4.834 v 16.113 a 4.84,4.84 0 0 1 -4.834,4.834 z m 0,0"
         transform="translate(-118.713,-116.035)"
         inkscape:connector-curvature="0"
         style="fill:#00eccf" />
      <path
         id="Path_80"
         data-name="Path 80"
         d="M 261.949,130 H 254 v 25.781 h 7.949 a 4.84,4.84 0 0 0 4.834,-4.834 V 134.834 A 4.84,4.84 0 0 0 261.949,130 Z m 0,0"
         transform="translate(-226.715,-116.035)"
         inkscape:connector-curvature="0"
         style="fill:#00cab1" />
      <path
         id="Path_81"
         data-name="Path 81"
         d="m 284.891,297.781 a 12.891,12.891 0 1 1 12.891,-12.891 12.905,12.905 0 0 1 -12.891,12.891 z m 0,0"
         transform="translate(-242.781,-242.781)"
         inkscape:connector-curvature="0"
         style="fill:#d11372" />
    </g>
  </g>
  <text
     xml:space="preserve"
     style="font-style:normal;font-weight:normal;font-size:40px;line-height:1.25;font-family:sans-serif;letter-spacing:0px;word-spacing:0px;opacity:1;fill:#ffffff;fill-opacity:1;stroke:none;image-rendering:optimizeQuality;"
     x="65.368797"
     y="42.894669"
     id="text4526"><tspan
       sodipodi:role="line"
       id="tspan4524"
       x="65.368797"
       y="42.894669"
       style="fill:#ffffff;fill-opacity:1;fill-rule:nonzero;">Task Pro</tspan></text>
</svg>
